<svg width="25" height="25" viewBox="0 0 45 45" fill="none" xmlns="http://www.w3.org/2000/svg">
<path d="M38.0676 5.59572C37.5258 5.61929 37.0286 5.77512 36.5918 5.94729C36.1883 6.10621 34.7391 6.71528 32.4316 7.68313C30.1241 8.65097 27.0665 9.93421 23.8074 11.305C17.2891 14.0464 9.9642 17.1303 6.21094 18.7097C6.08205 18.7634 5.5586 18.9237 4.98047 19.3653C4.401 19.8079 3.75732 20.7684 3.75732 21.8189C3.75732 22.6663 4.18035 23.5293 4.69116 24.0235C5.20197 24.5176 5.71967 24.7486 6.15234 24.9207V24.917C7.6149 25.4997 11.9826 27.2474 13.0225 27.6636C13.3913 28.769 14.9749 33.5012 15.3516 34.6912H15.3479C15.6142 35.5334 15.8737 36.0824 16.2341 36.5405C16.4143 36.7696 16.6294 36.9772 16.8933 37.1411C16.9945 37.204 17.1066 37.2528 17.2192 37.2986C17.2349 37.3053 17.2511 37.3069 17.2668 37.3133L17.2229 37.3023C17.2555 37.3154 17.2848 37.3348 17.3181 37.3462C17.3723 37.3649 17.4099 37.3643 17.4829 37.3792C17.7398 37.4582 17.9962 37.511 18.2336 37.511C19.2529 37.511 19.8779 36.958 19.8779 36.958L19.9182 36.9287L24.3201 33.2044L29.7107 38.1922C29.8092 38.3312 30.5805 39.375 32.3657 39.375C33.431 39.375 34.2732 38.8478 34.812 38.2947C35.3509 37.7416 35.6865 37.1758 35.8374 36.4087L35.8411 36.405C35.9614 35.786 41.1218 9.87307 41.1218 9.87307L41.1108 9.91701C41.2715 9.20012 41.3189 8.50683 41.1292 7.80031C40.9394 7.0938 40.4274 6.40432 39.8108 6.0425C39.1942 5.68069 38.6094 5.57215 38.0676 5.59572ZM37.3279 9.70095C37.124 10.7248 32.5013 33.9485 32.2156 35.4053L24.4299 28.2019L19.1675 32.6514L20.625 26.9531C20.625 26.9531 30.6798 16.7754 31.2854 16.1829C31.7729 15.7085 31.875 15.5422 31.875 15.3772C31.875 15.1578 31.7621 15 31.5015 15C31.2671 15 30.9488 15.2246 30.78 15.3296C28.6357 16.6665 19.5024 21.8713 15.011 24.4263C14.7407 24.3179 10.6826 22.6884 8.49609 21.8152C12.3853 20.1783 19.0522 17.3734 25.2612 14.762C28.5198 13.3915 31.5765 12.1071 33.8818 11.1402C35.8278 10.324 36.8429 9.90134 37.3279 9.70095ZM32.1606 35.6726H32.1643L32.1606 35.6836C32.163 35.6715 32.1589 35.6821 32.1606 35.6726Z" fill="#39796B"/>
</svg>
