<svg width="65" height="75" viewBox="0 0 65 75" fill="none" xmlns="http://www.w3.org/2000/svg">
<rect y="10" width="10" height="15" fill="#F73D3D"/>
<rect y="43" width="10" height="32" fill="#F63D3D"/>
<rect x="13" y="43" width="10" height="32" fill="#191818"/>
<rect x="13" y="10" width="10" height="15" fill="#191818"/>
<mask id="path-5-inside-1_1_16" fill="white">
<path d="M26 10H45C56.0457 10 65 18.9543 65 30V38C65 49.0457 56.0457 58 45 58H26V10Z"/>
</mask>
<path d="M26 -5H45C64.33 -5 80 10.67 80 30H50C50 27.2386 47.7614 25 45 25H26V-5ZM80 38C80 57.33 64.33 73 45 73H26V43H45C47.7614 43 50 40.7614 50 38H80ZM26 58V10V58ZM45 -5C64.33 -5 80 10.67 80 30V38C80 57.33 64.33 73 45 73V43C47.7614 43 50 40.7614 50 38V30C50 27.2386 47.7614 25 45 25V-5Z" fill="#F63D3D" mask="url(#path-5-inside-1_1_16)"/>
<circle cx="18" cy="5" r="5" fill="#191818"/>
<path d="M0.426136 30.794V29.2727H7.59375V30.794H4.92188V38H3.09801V30.794H0.426136ZM16.3956 33.6364C16.3956 34.5881 16.2152 35.3977 15.8544 36.0653C15.4964 36.733 15.0078 37.2429 14.3885 37.5952C13.772 37.9446 13.0788 38.1193 12.3089 38.1193C11.5334 38.1193 10.8374 37.9432 10.2209 37.5909C9.6044 37.2386 9.11719 36.7287 8.75923 36.0611C8.40128 35.3935 8.2223 34.5852 8.2223 33.6364C8.2223 32.6847 8.40128 31.875 8.75923 31.2074C9.11719 30.5398 9.6044 30.0312 10.2209 29.6818C10.8374 29.3295 11.5334 29.1534 12.3089 29.1534C13.0788 29.1534 13.772 29.3295 14.3885 29.6818C15.0078 30.0312 15.4964 30.5398 15.8544 31.2074C16.2152 31.875 16.3956 32.6847 16.3956 33.6364ZM14.5249 33.6364C14.5249 33.0199 14.4325 32.5 14.2479 32.0767C14.0661 31.6534 13.8089 31.3324 13.4766 31.1136C13.1442 30.8949 12.755 30.7855 12.3089 30.7855C11.8629 30.7855 11.4737 30.8949 11.1413 31.1136C10.8089 31.3324 10.5504 31.6534 10.3658 32.0767C10.1839 32.5 10.093 33.0199 10.093 33.6364C10.093 34.2528 10.1839 34.7727 10.3658 35.196C10.5504 35.6193 10.8089 35.9403 11.1413 36.1591C11.4737 36.3778 11.8629 36.4872 12.3089 36.4872C12.755 36.4872 13.1442 36.3778 13.4766 36.1591C13.8089 35.9403 14.0661 35.6193 14.2479 35.196C14.4325 34.7727 14.5249 34.2528 14.5249 33.6364ZM25.7823 33.6364C25.7823 34.5881 25.6019 35.3977 25.2411 36.0653C24.8832 36.733 24.3945 37.2429 23.7752 37.5952C23.1587 37.9446 22.4656 38.1193 21.6957 38.1193C20.9201 38.1193 20.2241 37.9432 19.6076 37.5909C18.9911 37.2386 18.5039 36.7287 18.146 36.0611C17.788 35.3935 17.609 34.5852 17.609 33.6364C17.609 32.6847 17.788 31.875 18.146 31.2074C18.5039 30.5398 18.9911 30.0312 19.6076 29.6818C20.2241 29.3295 20.9201 29.1534 21.6957 29.1534C22.4656 29.1534 23.1587 29.3295 23.7752 29.6818C24.3945 30.0312 24.8832 30.5398 25.2411 31.2074C25.6019 31.875 25.7823 32.6847 25.7823 33.6364ZM23.9116 33.6364C23.9116 33.0199 23.8192 32.5 23.6346 32.0767C23.4528 31.6534 23.1957 31.3324 22.8633 31.1136C22.5309 30.8949 22.1417 30.7855 21.6957 30.7855C21.2496 30.7855 20.8604 30.8949 20.5281 31.1136C20.1957 31.3324 19.9371 31.6534 19.7525 32.0767C19.5707 32.5 19.4798 33.0199 19.4798 33.6364C19.4798 34.2528 19.5707 34.7727 19.7525 35.196C19.9371 35.6193 20.1957 35.9403 20.5281 36.1591C20.8604 36.3778 21.2496 36.4872 21.6957 36.4872C22.1417 36.4872 22.5309 36.3778 22.8633 36.1591C23.1957 35.9403 23.4528 35.6193 23.6346 35.196C23.8192 34.7727 23.9116 34.2528 23.9116 33.6364ZM27.1491 38V29.2727H28.9943V36.4787H32.7358V38H27.1491ZM38.6921 31.7827C38.658 31.4389 38.5117 31.1719 38.2532 30.9815C37.9947 30.7912 37.6438 30.696 37.2006 30.696C36.8995 30.696 36.6452 30.7386 36.4379 30.8239C36.2305 30.9062 36.0714 31.0213 35.9606 31.169C35.8526 31.3168 35.7987 31.4844 35.7987 31.6719C35.793 31.8281 35.8256 31.9645 35.8967 32.081C35.9705 32.1974 36.0714 32.2983 36.1992 32.3835C36.3271 32.4659 36.4748 32.5384 36.6424 32.6009C36.81 32.6605 36.989 32.7116 37.1793 32.7543L37.9634 32.9418C38.3441 33.027 38.6935 33.1406 39.0117 33.2827C39.3299 33.4247 39.6055 33.5994 39.8384 33.8068C40.0714 34.0142 40.2518 34.2585 40.3796 34.5398C40.5103 34.821 40.5771 35.1435 40.5799 35.5071C40.5771 36.0412 40.4407 36.5043 40.1708 36.8963C39.9038 37.2855 39.5174 37.5881 39.0117 37.804C38.5089 38.017 37.9023 38.1236 37.1921 38.1236C36.4876 38.1236 35.8739 38.0156 35.3512 37.7997C34.8313 37.5838 34.4251 37.2642 34.1325 36.8409C33.8427 36.4148 33.6907 35.8878 33.6765 35.2599H35.462C35.4819 35.5526 35.5657 35.7969 35.7134 35.9929C35.864 36.1861 36.0643 36.3324 36.3143 36.4318C36.5671 36.5284 36.8526 36.5767 37.1708 36.5767C37.4833 36.5767 37.7546 36.5312 37.9847 36.4403C38.2177 36.3494 38.3981 36.223 38.5259 36.0611C38.6538 35.8991 38.7177 35.7131 38.7177 35.5028C38.7177 35.3068 38.6594 35.142 38.543 35.0085C38.4293 34.875 38.2617 34.7614 38.0401 34.6676C37.8214 34.5739 37.5529 34.4886 37.2347 34.4119L36.2844 34.1733C35.5487 33.9943 34.9677 33.7145 34.5415 33.3338C34.1154 32.9531 33.9038 32.4403 33.9066 31.7955C33.9038 31.267 34.0444 30.8054 34.3285 30.4105C34.6154 30.0156 35.0089 29.7074 35.5089 29.4858C36.0089 29.2642 36.5771 29.1534 37.2134 29.1534C37.8612 29.1534 38.4265 29.2642 38.9094 29.4858C39.3952 29.7074 39.7731 30.0156 40.043 30.4105C40.3129 30.8054 40.4521 31.2628 40.4606 31.7827H38.6921Z" fill="#141414"/>
</svg>
