<svg width="195" height="45" viewBox="0 0 195 45" fill="none" xmlns="http://www.w3.org/2000/svg">
<path d="M13.4304 16.4545V31H10.7741L4.44602 21.8452H4.33949V31H1.2642V16.4545H3.96307L10.2415 25.6023H10.3693V16.4545H13.4304ZM18.4783 31H15.1829L20.2042 16.4545H24.1673L29.1815 31H25.886L22.2425 19.7784H22.1289L18.4783 31ZM18.2724 25.2827H26.0565V27.6832H18.2724V25.2827ZM39.9165 16.4545H42.9918V25.9006C42.9918 26.9612 42.7385 27.8892 42.2319 28.6847C41.73 29.4801 41.0269 30.1004 40.1225 30.5455C39.2182 30.9858 38.1647 31.206 36.962 31.206C35.7546 31.206 34.6987 30.9858 33.7944 30.5455C32.89 30.1004 32.1869 29.4801 31.685 28.6847C31.1831 27.8892 30.9322 26.9612 30.9322 25.9006V16.4545H34.0075V25.6378C34.0075 26.1918 34.1282 26.6842 34.3697 27.1151C34.6159 27.5459 34.9615 27.8845 35.4066 28.1307C35.8517 28.3769 36.3701 28.5 36.962 28.5C37.5586 28.5 38.0771 28.3769 38.5174 28.1307C38.9625 27.8845 39.3058 27.5459 39.5472 27.1151C39.7934 26.6842 39.9165 26.1918 39.9165 25.6378V16.4545ZM45.522 31V16.4545H48.5973V22.8679H48.7891L54.0234 16.4545H57.7095L52.3118 22.9673L57.7734 31H54.0945L50.1101 25.0199L48.5973 26.8665V31H45.522ZM61.8182 31H58.5227L63.544 16.4545H67.5071L72.5213 31H69.2259L65.5824 19.7784H65.4688L61.8182 31ZM61.6122 25.2827H69.3963V27.6832H61.6122V25.2827ZM74.272 31V16.4545H80.0107C81.1091 16.4545 82.0466 16.651 82.8232 17.044C83.6044 17.4323 84.1986 17.9839 84.6058 18.6989C85.0178 19.4091 85.2237 20.2448 85.2237 21.206C85.2237 22.1719 85.0154 23.0028 84.5987 23.6989C84.1821 24.3902 83.5784 24.9205 82.7876 25.2898C82.0017 25.6591 81.05 25.8438 79.9325 25.8438H76.0902V23.3722H79.4354C80.0225 23.3722 80.5102 23.2917 80.8984 23.1307C81.2867 22.9697 81.5755 22.7282 81.7649 22.4062C81.959 22.0843 82.0561 21.6842 82.0561 21.206C82.0561 20.723 81.959 20.3158 81.7649 19.9844C81.5755 19.6529 81.2843 19.402 80.8913 19.2315C80.5031 19.0563 80.013 18.9688 79.4212 18.9688H77.3473V31H74.272ZM82.1271 24.3807L85.7422 31H82.3473L78.8104 24.3807H82.1271ZM90.4723 16.4545V31H87.397V16.4545H90.4723Z" fill="black"/>
<path d="M100.409 31V16.4545H103.484V22.8679H103.676L108.91 16.4545H112.596L107.199 22.9673L112.66 31H108.981L104.997 25.0199L103.484 26.8665V31H100.409ZM126.744 23.7273C126.744 25.3134 126.443 26.6629 125.842 27.7756C125.245 28.8883 124.431 29.7382 123.399 30.3253C122.371 30.9077 121.216 31.1989 119.933 31.1989C118.64 31.1989 117.48 30.9053 116.453 30.3182C115.425 29.7311 114.613 28.8812 114.017 27.7685C113.42 26.6558 113.122 25.3087 113.122 23.7273C113.122 22.1411 113.42 20.7917 114.017 19.679C114.613 18.5663 115.425 17.7187 116.453 17.1364C117.48 16.5492 118.64 16.2557 119.933 16.2557C121.216 16.2557 122.371 16.5492 123.399 17.1364C124.431 17.7187 125.245 18.5663 125.842 19.679C126.443 20.7917 126.744 22.1411 126.744 23.7273ZM123.626 23.7273C123.626 22.6998 123.472 21.8333 123.164 21.1278C122.861 20.4223 122.433 19.8873 121.879 19.5227C121.325 19.1581 120.676 18.9759 119.933 18.9759C119.19 18.9759 118.541 19.1581 117.987 19.5227C117.433 19.8873 117.002 20.4223 116.694 21.1278C116.391 21.8333 116.24 22.6998 116.24 23.7273C116.24 24.7547 116.391 25.6212 116.694 26.3267C117.002 27.0322 117.433 27.5672 117.987 27.9318C118.541 28.2964 119.19 28.4787 119.933 28.4787C120.676 28.4787 121.325 28.2964 121.879 27.9318C122.433 27.5672 122.861 27.0322 123.164 26.3267C123.472 25.6212 123.626 24.7547 123.626 23.7273ZM136.913 20.6378C136.856 20.0649 136.612 19.6198 136.181 19.3026C135.75 18.9853 135.165 18.8267 134.427 18.8267C133.925 18.8267 133.501 18.8977 133.156 19.0398C132.81 19.1771 132.545 19.3688 132.36 19.6151C132.18 19.8613 132.09 20.1406 132.09 20.4531C132.081 20.7135 132.135 20.9408 132.254 21.1349C132.377 21.3291 132.545 21.4972 132.758 21.6392C132.971 21.7765 133.217 21.8973 133.496 22.0014C133.776 22.1009 134.074 22.1861 134.391 22.2571L135.698 22.5696C136.333 22.7116 136.915 22.901 137.445 23.1378C137.976 23.3745 138.435 23.6657 138.823 24.0114C139.211 24.357 139.512 24.7642 139.725 25.233C139.943 25.7017 140.054 26.2391 140.059 26.8452C140.054 27.7353 139.827 28.5071 139.377 29.1605C138.932 29.8092 138.288 30.3134 137.445 30.6733C136.607 31.0284 135.596 31.206 134.413 31.206C133.238 31.206 132.216 31.026 131.344 30.6662C130.478 30.3063 129.801 29.7737 129.313 29.0682C128.83 28.358 128.577 27.4796 128.553 26.4332H131.529C131.562 26.9209 131.702 27.3281 131.948 27.6548C132.199 27.9768 132.533 28.2206 132.95 28.3864C133.371 28.5473 133.847 28.6278 134.377 28.6278C134.898 28.6278 135.35 28.5521 135.734 28.4006C136.122 28.2491 136.423 28.0384 136.636 27.7685C136.849 27.4986 136.955 27.1884 136.955 26.8381C136.955 26.5114 136.858 26.2367 136.664 26.0142C136.475 25.7917 136.195 25.6023 135.826 25.446C135.461 25.2898 135.014 25.1477 134.484 25.0199L132.9 24.6222C131.674 24.3239 130.705 23.8575 129.995 23.223C129.285 22.5885 128.932 21.7339 128.937 20.6591C128.932 19.7784 129.166 19.009 129.64 18.3509C130.118 17.6927 130.774 17.179 131.607 16.8097C132.441 16.4403 133.388 16.2557 134.448 16.2557C135.528 16.2557 136.47 16.4403 137.275 16.8097C138.085 17.179 138.714 17.6927 139.164 18.3509C139.614 19.009 139.846 19.7713 139.86 20.6378H136.913ZM142.127 31V16.4545H145.203V22.456H151.446V16.4545H154.514V31H151.446V24.9915H145.203V31H142.127Z" fill="#FEFEFE"/>
<line x1="160" y1="44" x2="160" y2="16" stroke="black" stroke-width="4"/>
<path d="M182.378 24.9791C182.378 29.1455 178.651 32.7083 173.814 32.7083C168.977 32.7083 165.25 29.1455 165.25 24.9791C165.25 20.8127 168.977 17.25 173.814 17.25C178.651 17.25 182.378 20.8127 182.378 24.9791Z" stroke="white" stroke-width="2.5"/>
<path d="M180.606 31.1938L182.808 33.2082" stroke="white" stroke-width="2"/>
<mask id="path-5-inside-1_103_2" fill="white">
<rect width="13.8409" height="5.13044" rx="2" transform="matrix(0.73779 0.67503 -0.73779 0.67503 184.392 31.1938)"/>
</mask>
<rect width="13.8409" height="5.13044" rx="2" transform="matrix(0.73779 0.67503 -0.73779 0.67503 184.392 31.1938)" stroke="white" stroke-width="5" mask="url(#path-5-inside-1_103_2)"/>
<path d="M48.8366 43.2476V36.3385H52.9794V37.0807H49.6733V39.4152H52.669V40.1574H49.6733V43.2476H48.8366ZM55.249 36.3385V43.2476H54.4123V36.3385H55.249ZM62.4052 36.3385V43.2476H61.5955L57.8306 37.8228H57.7631V43.2476H56.9265V36.3385H57.7362L61.5146 41.7767H61.582V36.3385H62.4052ZM66.2114 43.2476H64.0793V36.3385H66.3059C66.9761 36.3385 67.5496 36.4768 68.0264 36.7534C68.5032 37.0278 68.8687 37.4225 69.1228 37.9375C69.377 38.4503 69.504 39.0643 69.504 39.7795C69.504 40.4992 69.3758 41.1188 69.1195 41.6384C68.8631 42.1556 68.4897 42.5537 67.9994 42.8326C67.5091 43.1092 66.9131 43.2476 66.2114 43.2476ZM64.916 42.5054H66.1574C66.7287 42.5054 67.2021 42.3952 67.5777 42.1748C67.9533 41.9544 68.2333 41.6406 68.4177 41.2335C68.6022 40.8265 68.6944 40.3418 68.6944 39.7795C68.6944 39.2218 68.6033 38.7416 68.4211 38.339C68.2389 37.9342 67.9668 37.6238 67.6047 37.4079C67.2426 37.1897 66.7917 37.0807 66.2519 37.0807H64.916V42.5054ZM72.9856 36.3385H73.9437L75.8599 39.5636H75.9408L77.857 36.3385H78.8151L76.3187 40.4003V43.2476H75.482V40.4003L72.9856 36.3385ZM85.402 39.793C85.402 40.5217 85.2705 41.1514 85.0073 41.6822C84.7442 42.213 84.3832 42.6223 83.9244 42.9102C83.4656 43.1981 82.9416 43.342 82.3523 43.342C81.7631 43.342 81.239 43.1981 80.7802 42.9102C80.3214 42.6223 79.9604 42.213 79.6973 41.6822C79.4342 41.1514 79.3026 40.5217 79.3026 39.793C79.3026 39.0643 79.4342 38.4346 79.6973 37.9038C79.9604 37.373 80.3214 36.9637 80.7802 36.6758C81.239 36.3879 81.7631 36.244 82.3523 36.244C82.9416 36.244 83.4656 36.3879 83.9244 36.6758C84.3832 36.9637 84.7442 37.373 85.0073 37.9038C85.2705 38.4346 85.402 39.0643 85.402 39.793ZM84.5924 39.793C84.5924 39.1948 84.4923 38.6899 84.2921 38.2783C84.0942 37.8667 83.8254 37.5552 83.4858 37.3438C83.1485 37.1324 82.7706 37.0267 82.3523 37.0267C81.934 37.0267 81.555 37.1324 81.2154 37.3438C80.8781 37.5552 80.6093 37.8667 80.4091 38.2783C80.2112 38.6899 80.1123 39.1948 80.1123 39.793C80.1123 40.3913 80.2112 40.8962 80.4091 41.3078C80.6093 41.7193 80.8781 42.0308 81.2154 42.2422C81.555 42.4536 81.934 42.5593 82.3523 42.5593C82.7706 42.5593 83.1485 42.4536 83.4858 42.2422C83.8254 42.0308 84.0942 41.7193 84.2921 41.3078C84.4923 40.8962 84.5924 40.3913 84.5924 39.793ZM91.3429 36.3385H92.1796V40.913C92.1796 41.3853 92.0682 41.807 91.8456 42.1781C91.6252 42.547 91.3137 42.8382 90.9111 43.0519C90.5085 43.2633 90.0362 43.369 89.4942 43.369C88.9522 43.369 88.4799 43.2633 88.0773 43.0519C87.6747 42.8382 87.3621 42.547 87.1394 42.1781C86.919 41.807 86.8088 41.3853 86.8088 40.913V36.3385H87.6455V40.8456C87.6455 41.1829 87.7197 41.4832 87.8681 41.7463C88.0166 42.0072 88.228 42.213 88.5024 42.3637C88.779 42.5121 89.1096 42.5863 89.4942 42.5863C89.8788 42.5863 90.2094 42.5121 90.486 42.3637C90.7627 42.213 90.9741 42.0072 91.1203 41.7463C91.2687 41.4832 91.3429 41.1829 91.3429 40.8456V36.3385ZM93.8503 43.2476V36.3385H96.1848C96.7246 36.3385 97.1677 36.4307 97.514 36.6151C97.8604 36.7973 98.1168 37.048 98.2832 37.3674C98.4496 37.6868 98.5328 38.05 98.5328 38.4571C98.5328 38.8642 98.4496 39.2251 98.2832 39.54C98.1168 39.8549 97.8615 40.1023 97.5174 40.2822C97.1733 40.4599 96.7336 40.5487 96.1983 40.5487H94.3091V39.793H96.1713C96.5402 39.793 96.8371 39.739 97.062 39.6311C97.2891 39.5231 97.4533 39.3702 97.5545 39.1723C97.658 38.9721 97.7097 38.7337 97.7097 38.4571C97.7097 38.1804 97.658 37.9387 97.5545 37.7318C97.4511 37.5248 97.2857 37.3652 97.0586 37.2527C96.8314 37.138 96.5312 37.0807 96.1578 37.0807H94.687V43.2476H93.8503ZM97.1025 40.1439L98.8027 43.2476H97.8311L96.1578 40.1439H97.1025ZM104.731 43.2476H102.599V36.3385H104.825C105.496 36.3385 106.069 36.4768 106.546 36.7534C107.023 37.0278 107.388 37.4225 107.642 37.9375C107.896 38.4503 108.024 39.0643 108.024 39.7795C108.024 40.4992 107.895 41.1188 107.639 41.6384C107.383 42.1556 107.009 42.5537 106.519 42.8326C106.029 43.1092 105.433 43.2476 104.731 43.2476ZM103.436 42.5054H104.677C105.248 42.5054 105.722 42.3952 106.097 42.1748C106.473 41.9544 106.753 41.6406 106.937 41.2335C107.122 40.8265 107.214 40.3418 107.214 39.7795C107.214 39.2218 107.123 38.7416 106.941 38.339C106.758 37.9342 106.486 37.6238 106.124 37.4079C105.762 37.1897 105.311 37.0807 104.771 37.0807H103.436V42.5054ZM109.427 43.2476V36.3385H111.761C112.301 36.3385 112.744 36.4307 113.091 36.6151C113.437 36.7973 113.693 37.048 113.86 37.3674C114.026 37.6868 114.11 38.05 114.11 38.4571C114.11 38.8642 114.026 39.2251 113.86 39.54C113.693 39.8549 113.438 40.1023 113.094 40.2822C112.75 40.4599 112.31 40.5487 111.775 40.5487H109.886V39.793H111.748C112.117 39.793 112.414 39.739 112.639 39.6311C112.866 39.5231 113.03 39.3702 113.131 39.1723C113.235 38.9721 113.286 38.7337 113.286 38.4571C113.286 38.1804 113.235 37.9387 113.131 37.7318C113.028 37.5248 112.862 37.3652 112.635 37.2527C112.408 37.138 112.108 37.0807 111.735 37.0807H110.264V43.2476H109.427ZM112.679 40.1439L114.379 43.2476H113.408L111.735 40.1439H112.679ZM115.504 43.2476V36.3385H119.673V37.0807H116.34V39.4152H119.457V40.1574H116.34V42.5054H119.727V43.2476H115.504ZM121.465 43.2476H120.588L123.125 36.3385H123.988L126.525 43.2476H125.648L123.583 37.4315H123.529L121.465 43.2476ZM121.789 40.5487H125.324V41.2909H121.789V40.5487ZM127.601 36.3385H128.6L130.948 42.0736H131.029L133.377 36.3385H134.375V43.2476H133.593V37.9983H133.525L131.366 43.2476H130.611L128.451 37.9983H128.384V43.2476H127.601V36.3385ZM141.37 36.3385H142.206V41.2774C142.206 41.7182 142.125 42.0927 141.963 42.4008C141.802 42.7089 141.573 42.9428 141.279 43.1025C140.984 43.2622 140.637 43.342 140.236 43.342C139.858 43.342 139.522 43.2734 139.227 43.1362C138.933 42.9968 138.701 42.7989 138.533 42.5425C138.364 42.2861 138.28 41.9813 138.28 41.6282H139.103C139.103 41.8239 139.151 41.9948 139.248 42.141C139.347 42.285 139.482 42.3974 139.653 42.4784C139.823 42.5593 140.018 42.5998 140.236 42.5998C140.477 42.5998 140.682 42.5492 140.85 42.448C141.019 42.3468 141.147 42.1984 141.235 42.0027C141.325 41.8048 141.37 41.563 141.37 41.2774V36.3385ZM149.713 39.793C149.713 40.5217 149.581 41.1514 149.318 41.6822C149.055 42.213 148.694 42.6223 148.235 42.9102C147.776 43.1981 147.252 43.342 146.663 43.342C146.074 43.342 145.55 43.1981 145.091 42.9102C144.632 42.6223 144.271 42.213 144.008 41.6822C143.745 41.1514 143.613 40.5217 143.613 39.793C143.613 39.0643 143.745 38.4346 144.008 37.9038C144.271 37.373 144.632 36.9637 145.091 36.6758C145.55 36.3879 146.074 36.244 146.663 36.244C147.252 36.244 147.776 36.3879 148.235 36.6758C148.694 36.9637 149.055 37.373 149.318 37.9038C149.581 38.4346 149.713 39.0643 149.713 39.793ZM148.903 39.793C148.903 39.1948 148.803 38.6899 148.603 38.2783C148.405 37.8667 148.136 37.5552 147.796 37.3438C147.459 37.1324 147.081 37.0267 146.663 37.0267C146.245 37.0267 145.866 37.1324 145.526 37.3438C145.189 37.5552 144.92 37.8667 144.72 38.2783C144.522 38.6899 144.423 39.1948 144.423 39.793C144.423 40.3913 144.522 40.8962 144.72 41.3078C144.92 41.7193 145.189 42.0308 145.526 42.2422C145.866 42.4536 146.245 42.5593 146.663 42.5593C147.081 42.5593 147.459 42.4536 147.796 42.2422C148.136 42.0308 148.405 41.7193 148.603 41.3078C148.803 40.8962 148.903 40.3913 148.903 39.793ZM151.119 43.2476V36.3385H153.535C154.016 36.3385 154.413 36.4217 154.726 36.5881C155.038 36.7523 155.271 36.9738 155.424 37.2527C155.577 37.5293 155.653 37.8363 155.653 38.1737C155.653 38.4706 155.601 38.7157 155.495 38.9091C155.391 39.1026 155.254 39.2555 155.083 39.3679C154.915 39.4804 154.731 39.5636 154.533 39.6176V39.6851C154.745 39.6986 154.957 39.7728 155.171 39.9077C155.385 40.0427 155.563 40.2361 155.707 40.488C155.851 40.7399 155.923 41.048 155.923 41.4123C155.923 41.7587 155.845 42.0702 155.687 42.3468C155.53 42.6234 155.281 42.8427 154.942 43.0047C154.602 43.1666 154.16 43.2476 153.616 43.2476H151.119ZM151.956 42.5054H153.616C154.162 42.5054 154.55 42.3997 154.78 42.1883C155.011 41.9746 155.127 41.716 155.127 41.4123C155.127 41.1784 155.068 40.9625 154.948 40.7646C154.829 40.5644 154.659 40.4048 154.439 40.2856C154.219 40.1641 153.958 40.1034 153.656 40.1034H151.956V42.5054ZM151.956 39.3747H153.508C153.76 39.3747 153.987 39.3252 154.189 39.2263C154.394 39.1273 154.556 38.9879 154.675 38.8079C154.797 38.628 154.857 38.4166 154.857 38.1737C154.857 37.8701 154.752 37.6126 154.54 37.4011C154.329 37.1875 153.994 37.0807 153.535 37.0807H151.956V39.3747Z" fill="white"/>
</svg>
